<?xml version="1.0" encoding="UTF-8" standalone="no"?>
<!DOCTYPE svg PUBLIC "-//W3C//DTD SVG 1.1//EN" "http://www.w3.org/Graphics/SVG/1.1/DTD/svg11.dtd">
<svg width="100%" height="100%" viewBox="0 0 1067 1067" version="1.1" xmlns="http://www.w3.org/2000/svg" xmlns:xlink="http://www.w3.org/1999/xlink" xml:space="preserve" xmlns:serif="http://www.serif.com/" style="fill-rule:evenodd;clip-rule:evenodd;stroke-linejoin:round;stroke-miterlimit:2;">
    <g id="Layer-1" serif:id="Layer 1">
    </g>
    <g id="Layer-2" serif:id="Layer 2" transform="matrix(5.31433,0,0,5.31433,-146.903,-146.903)">
        <g transform="matrix(0,-1,-1,0,128,36.766)">
            <path d="M-91.234,-91.234C-40.847,-91.234 0,-50.387 0,0C0,50.387 -40.847,91.234 -91.234,91.234C-141.621,91.234 -182.468,50.387 -182.468,0C-182.468,-50.387 -141.621,-91.234 -91.234,-91.234" style="fill:rgb(206,198,0);fill-rule:nonzero;"/>
        </g>
        <g transform="matrix(1,0,0,1,155.777,186.661)">
            <path d="M0,-117.322C-3.604,-117.322 -4.971,-115.458 -8.202,-115.458C-11.309,-115.458 -13.547,-117.57 -13.547,-120.677C-13.547,-125.524 -8.824,-128.134 -0.746,-128.134C6.214,-128.134 11.434,-124.53 11.434,-119.932C11.434,-117.322 9.818,-115.209 7.581,-115.209C3.977,-115.209 2.113,-117.322 0,-117.322M-24.732,15.535C-6.587,15.535 8.7,-12.304 12.677,-18.891C17.772,-27.094 15.411,-35.172 15.411,-40.019C15.411,-43.25 25.726,-51.204 25.726,-59.407C25.726,-67.858 5.717,-75.315 5.717,-79.789C5.717,-82.772 7.954,-85.257 10.316,-85.257C14.417,-85.257 25.229,-71.711 31.071,-71.711C35.048,-71.711 35.42,-75.066 37.533,-75.066C42.38,-75.066 43.002,-46.854 58.91,-40.392C63.757,-45.612 66.491,-51.08 66.491,-58.661C66.491,-109.989 23.738,-152.991 -27.963,-152.991C-58.785,-152.991 -68.728,-140.438 -68.728,-131.366C-68.728,-118.813 -79.167,-115.955 -79.167,-108.249C-79.167,-103.278 -75.563,-99.922 -69.97,-99.922C-58.536,-99.922 -58.536,-112.351 -53.317,-112.351C-49.34,-112.226 -45.363,-105.391 -37.533,-105.391C-34.177,-105.391 -32.562,-107.752 -32.437,-110.859C-32.437,-111.978 -31.816,-112.599 -30.822,-112.599C-24.608,-112.599 -18.145,-105.515 -18.145,-101.538C-18.145,-97.437 -19.636,-94.578 -21.998,-94.578C-26.348,-94.578 -37.16,-99.425 -46.978,-99.425C-69.1,-99.425 -87.37,-84.139 -87.37,-65.497C-87.37,-49.216 -77.8,-39.77 -61.022,-39.77C-51.204,-39.77 -43.871,-33.059 -43.871,-23.987C-43.871,-9.57 -45.487,15.535 -24.732,15.535M-27.839,26.72C-74.32,26.72 -113.096,-12.18 -113.096,-58.661C-113.096,-105.142 -74.445,-144.042 -27.963,-144.042C18.642,-144.042 57.543,-105.142 57.543,-58.661C57.543,-12.18 18.767,26.72 -27.839,26.72M-27.839,41.634C26.969,41.634 72.581,-3.853 72.581,-58.661C72.581,-113.469 26.845,-158.956 -27.963,-158.956C-82.647,-158.956 -128.134,-113.469 -128.134,-58.661C-128.134,-3.853 -82.523,41.634 -27.839,41.634" style="fill:white;fill-rule:nonzero;"/>
        </g>
    </g>
</svg>
