<?xml version="1.0" encoding="UTF-8"?><svg xmlns="http://www.w3.org/2000/svg" xmlns:xlink="http://www.w3.org/1999/xlink" viewBox="0 0 256 256"><defs><style>.cls-1{fill:#fff;}.cls-2{fill:#cec600;}.cls-3{fill:url(#radial-gradient);}</style><radialGradient id="radial-gradient" cx="129.25" cy="128" fx="129.25" fy="128" r="200.91" gradientUnits="userSpaceOnUse"><stop offset=".31" stop-color="#065f65"/><stop offset="1" stop-color="#008c99"/></radialGradient></defs><g id="Layer_1"><rect class="cls-3" width="256" height="256"/></g><g id="Layer_3"><circle class="cls-2" cx="128" cy="128" r="91.23"/></g><g id="Layer_2"><g id="Regular-S"><path class="cls-1" d="M127.94,228.3c54.81,0,100.42-45.49,100.42-100.3S182.62,27.7,127.81,27.7,27.64,73.19,27.64,128s45.61,100.3,100.3,100.3Zm0-14.91c-46.48,0-85.26-38.9-85.26-85.38S81.33,42.62,127.81,42.62s85.51,38.9,85.51,85.38-38.78,85.38-85.38,85.38Zm3.11-11.19c18.15,0,33.43-27.84,37.41-34.43,5.1-8.2,2.73-16.28,2.73-21.13,0-3.23,10.32-11.19,10.32-19.39s-20.01-15.91-20.01-20.38c0-2.98,2.24-5.47,4.6-5.47,4.1,0,14.91,13.55,20.76,13.55,3.98,0,4.35-3.36,6.46-3.36,4.85,0,5.47,28.21,21.38,34.67,4.85-5.22,7.58-10.69,7.58-18.27,0-51.33-42.75-94.33-94.45-94.33-30.82,0-40.76,12.55-40.76,21.62,0,12.55-10.44,15.41-10.44,23.12,0,4.97,3.6,8.33,9.2,8.33,11.43,0,11.43-12.43,16.65-12.43,3.98,.12,7.95,6.96,15.78,6.96,3.36,0,4.97-2.36,5.1-5.47,0-1.12,.62-1.74,1.62-1.74,6.21,0,12.68,7.08,12.68,11.06s-1.49,6.96-3.85,6.96c-4.35,0-15.16-4.85-24.98-4.85-22.12,0-40.39,15.29-40.39,33.93,0,16.28,9.57,25.73,26.35,25.73,9.82,0,17.15,6.71,17.15,15.78,0,14.42-1.62,39.52,19.14,39.52Zm24.73-132.86c-3.6,0-4.97,1.86-8.2,1.86s-5.34-2.11-5.34-5.22c0-4.85,4.72-7.46,12.8-7.46,6.96,0,12.18,3.6,12.18,8.2,0,2.61-1.62,4.72-3.85,4.72-3.6,0-5.47-2.11-7.58-2.11Z"/></g></g></svg>